<svg xmlns="http://www.w3.org/2000/svg" viewBox="0 0 120 120">
  <rect width="120" height="120" rx="24" fill="#fff9ef" />

  <ellipse
    cx="38"
    cy="32"
    rx="16"
    ry="22"
    fill="#cfeeff"
    opacity="0.9"
    transform="rotate(-25 38 32)"
  />
  <ellipse
    cx="82"
    cy="32"
    rx="16"
    ry="22"
    fill="#cfeeff"
    opacity="0.9"
    transform="rotate(25 82 32)"
  />

  <circle cx="60" cy="68" r="42" fill="#ffd93d" stroke="#3b3355" stroke-width="4" />
  <path d="M24 82Q60 96 96 82L94 90Q60 102 26 90Z" fill="#3b3355" />
  <path d="M22 66Q60 78 98 66L98 74Q60 86 22 74Z" fill="#3b3355" />

  <path d="M46 30Q42 18 34 14" fill="none" stroke="#3b3355" stroke-width="4" stroke-linecap="round" />
  <path d="M74 30Q78 18 86 14" fill="none" stroke="#3b3355" stroke-width="4" stroke-linecap="round" />
  <circle cx="33" cy="13" r="5" fill="#ff8a80" />
  <circle cx="87" cy="13" r="5" fill="#ff8a80" />

  <circle cx="45" cy="56" r="8" fill="#3b3355" />
  <circle cx="48" cy="53" r="2.8" fill="white" />
  <circle cx="75" cy="56" r="8" fill="#3b3355" />
  <circle cx="78" cy="53" r="2.8" fill="white" />
  <circle cx="34" cy="68" r="5" fill="#ffb3ab" opacity="0.7" />
  <circle cx="86" cy="68" r="5" fill="#ffb3ab" opacity="0.7" />
  <path d="M48 74Q60 82 72 74" fill="none" stroke="#3b3355" stroke-width="4" stroke-linecap="round" />
</svg>
